{"title":"2 Fast 2 Furious(2003)MPEG-4[DaScubaDude]","uid":13666018,"size":1071707017,"categoryP":"video","categoryS":"movies","magnet":"?xt=urn:btih:e5f3ec31b84cc7bfc98789af067eef85c0312883&amp;dn=2+Fast+2+Furious%282003%29MPEG-4%5BDaScubaDude%5D&amp;tr=udp%3A%2F%2Ftracker.leechers-paradise.org%3A6969&amp;tr=udp%3A%2F%2Fzer0day.ch%3A1337&amp;tr=udp%3A%2F%2Fopen.demonii.com%3A1337&amp;tr=udp%3A%2F%2Ftracker.coppersurfer.tk%3A6969&amp;tr=udp%3A%2F%2Fexodus.desync.com%3A6969","seeders":0,"leechers":1,"uploader":"dascuba","files":1,"time":1456274039,"description":"2 Fast 2 Furious (2003)\r\nPG-13 | 1h 47min | Action, Crime, Thriller | 6 June 2003 (USA)\r\nFormer cop Brian O'Conner is called upon to bust a dangerous criminal and he recruits the help of a former childhood friend and street racer who has a chance to redeem himself.\r\nDirector: John Singleton\r\nWriters: Gary Scott Thompson (characters), Michael Brandt (story) | 4 more credits »\r\nStars: Paul Walker, Tyrese Gibson, Cole Hauser\r\n\r\nGeneral\r\nComplete name                            : 2 Fast 2 Furious2_FAST_2_FURIOUS_Title1.mp4\r\nFormat                                   : MPEG-4\r\nFormat profile                           : Base Media\r\nCodec ID                                 : isom\r\nFile size                                : 1 022 MiB\r\nDuration                                 : 1h 47mn\r\nOverall bit rate                         : 1 328 Kbps\r\nMovie name                               : 2_FAST_2_FURIOUS\r\nGenre                                    : Action\r\nWriting application                      : Lavf54.6.100\r\n\r\nVideo\r\nID                                       : 1\r\nFormat                                   : AVC\r\nFormat/Info                              : Advanced Video Codec\r\nFormat profile                           :   \r\nFormat settings, CABAC                   : No\r\nFormat settings, ReFrames                : 6 frames\r\nCodec ID                                 : avc1\r\nCodec ID/Info                            : Advanced Video Coding\r\nDuration                                 : 1h 47mn\r\nBit rate                                 : 1 193 Kbps\r\nWidth                                    : 720 pixels\r\nHeight                                   : 404 pixels\r\nDisplay aspect ratio                     : 16:9\r\nFrame rate mode                          : Constant\r\nFrame rate                               : 29.970 fps\r\nColor space                              : YUV\r\nChroma subsampling                       : 4:2:0\r\nBit depth                                : 8 bits\r\nScan type                                : Progressive\r\nBits/(Pixel*Frame)                       : 0.137\r\nStream size                              : 918 MiB (90%)\r\n\r\nAudio\r\nID                                       : 2\r\nFormat                                   : AAC\r\nFormat/Info                              : Advanced Audio Codec\r\nFormat profile                           : LC\r\nCodec ID                                 : 40\r\nDuration                                 : 1h 47mn\r\nBit rate mode                            : Constant\r\nBit rate                                 : 128 Kbps\r\nChannel(s)                               : 2 channels\r\nChannel positions                        : Front: L R\r\nSampling rate                            : 44.1 KHz\r\nCompression mode                         : Lossy\r\nStream size                              : 98.5 MiB (10%)","torrent":{"xt":"urn:btih:e5f3ec31b84cc7bfc98789af067eef85c0312883","amp;dn":"2+Fast+2+Furious%282003%29MPEG-4%5BDaScubaDude%5D","amp;tr":["udp%3A%2F%2Ftracker.leechers-paradise.org%3A6969","udp%3A%2F%2Fzer0day.ch%3A1337","udp%3A%2F%2Fopen.demonii.com%3A1337","udp%3A%2F%2Ftracker.coppersurfer.tk%3A6969","udp%3A%2F%2Fexodus.desync.com%3A6969"],"infoHash":"e5f3ec31b84cc7bfc98789af067eef85c0312883","infoHashBuffer":{"type":"Buffer","data":[229,243,236,49,184,76,199,191,201,135,137,175,6,126,239,133,192,49,40,131]},"announce":[],"urlList":[]}}